<mxfile host="app.diagrams.net" modified="2023-12-03T16:11:06.168Z" agent="Mozilla/5.0 (Windows NT 10.0; Win64; x64) AppleWebKit/537.36 (KHTML, like Gecko) Chrome/119.0.0.0 Safari/537.36" etag="JNd2_feebTYKwUX0BkRI" version="21.7.5" type="device">
  <diagram name="Σελίδα-1" id="Yej3UfYN7V0LBHma5by4">
    <mxGraphModel dx="1591" dy="860" grid="1" gridSize="10" guides="1" tooltips="1" connect="1" arrows="1" fold="1" page="1" pageScale="1" pageWidth="1100" pageHeight="850" math="0" shadow="0">
      <root>
        <mxCell id="0" />
        <mxCell id="1" parent="0" />
        <mxCell id="bnJA9mEv1rsPoNUp5mqw-1" value="APP" style="rounded=0;whiteSpace=wrap;html=1;" vertex="1" parent="1">
          <mxGeometry x="480" y="20" width="120" height="30" as="geometry" />
        </mxCell>
        <mxCell id="bnJA9mEv1rsPoNUp5mqw-2" value="Slides&lt;br&gt;" style="rounded=1;whiteSpace=wrap;html=1;" vertex="1" parent="1">
          <mxGeometry x="230" y="70" width="100" height="40" as="geometry" />
        </mxCell>
        <mxCell id="bnJA9mEv1rsPoNUp5mqw-27" value="" style="edgeStyle=orthogonalEdgeStyle;rounded=0;orthogonalLoop=1;jettySize=auto;html=1;" edge="1" parent="1" source="bnJA9mEv1rsPoNUp5mqw-3" target="bnJA9mEv1rsPoNUp5mqw-26">
          <mxGeometry relative="1" as="geometry">
            <Array as="points">
              <mxPoint x="740" y="180" />
              <mxPoint x="585" y="180" />
              <mxPoint x="585" y="291" />
            </Array>
          </mxGeometry>
        </mxCell>
        <mxCell id="bnJA9mEv1rsPoNUp5mqw-31" value="" style="edgeStyle=orthogonalEdgeStyle;rounded=0;orthogonalLoop=1;jettySize=auto;html=1;" edge="1" parent="1" source="bnJA9mEv1rsPoNUp5mqw-3" target="bnJA9mEv1rsPoNUp5mqw-28">
          <mxGeometry relative="1" as="geometry">
            <Array as="points">
              <mxPoint x="740" y="222" />
              <mxPoint x="745" y="222" />
            </Array>
          </mxGeometry>
        </mxCell>
        <mxCell id="bnJA9mEv1rsPoNUp5mqw-33" value="" style="edgeStyle=orthogonalEdgeStyle;rounded=0;orthogonalLoop=1;jettySize=auto;html=1;exitX=0.5;exitY=1;exitDx=0;exitDy=0;" edge="1" parent="1" source="bnJA9mEv1rsPoNUp5mqw-3" target="bnJA9mEv1rsPoNUp5mqw-32">
          <mxGeometry relative="1" as="geometry">
            <Array as="points">
              <mxPoint x="740" y="160" />
              <mxPoint x="740" y="180" />
              <mxPoint x="1005" y="180" />
            </Array>
          </mxGeometry>
        </mxCell>
        <mxCell id="bnJA9mEv1rsPoNUp5mqw-35" value="" style="edgeStyle=orthogonalEdgeStyle;rounded=0;orthogonalLoop=1;jettySize=auto;html=1;entryX=0.592;entryY=0.005;entryDx=0;entryDy=0;entryPerimeter=0;" edge="1" parent="1" target="bnJA9mEv1rsPoNUp5mqw-34">
          <mxGeometry relative="1" as="geometry">
            <mxPoint x="750" y="160" as="sourcePoint" />
            <mxPoint x="1420" y="230" as="targetPoint" />
            <Array as="points">
              <mxPoint x="740" y="160" />
              <mxPoint x="740" y="180" />
              <mxPoint x="1240" y="180" />
              <mxPoint x="1240" y="221" />
            </Array>
          </mxGeometry>
        </mxCell>
        <mxCell id="bnJA9mEv1rsPoNUp5mqw-3" value="BottomTabNavigator&lt;br&gt;" style="shape=parallelogram;perimeter=parallelogramPerimeter;whiteSpace=wrap;html=1;fixedSize=1;" vertex="1" parent="1">
          <mxGeometry x="660" y="120" width="150" height="40" as="geometry" />
        </mxCell>
        <mxCell id="bnJA9mEv1rsPoNUp5mqw-4" value="" style="endArrow=none;html=1;rounded=0;exitX=0.5;exitY=0;exitDx=0;exitDy=0;entryX=0.25;entryY=1;entryDx=0;entryDy=0;" edge="1" parent="1" source="bnJA9mEv1rsPoNUp5mqw-2" target="bnJA9mEv1rsPoNUp5mqw-1">
          <mxGeometry width="50" height="50" relative="1" as="geometry">
            <mxPoint x="470" y="120" as="sourcePoint" />
            <mxPoint x="520" y="70" as="targetPoint" />
          </mxGeometry>
        </mxCell>
        <mxCell id="bnJA9mEv1rsPoNUp5mqw-5" value="" style="endArrow=none;html=1;rounded=0;entryX=0.75;entryY=1;entryDx=0;entryDy=0;exitX=0.5;exitY=0;exitDx=0;exitDy=0;" edge="1" parent="1" source="bnJA9mEv1rsPoNUp5mqw-3" target="bnJA9mEv1rsPoNUp5mqw-1">
          <mxGeometry width="50" height="50" relative="1" as="geometry">
            <mxPoint x="650" y="120" as="sourcePoint" />
            <mxPoint x="700" y="70" as="targetPoint" />
          </mxGeometry>
        </mxCell>
        <mxCell id="bnJA9mEv1rsPoNUp5mqw-6" value="Slide 1" style="rounded=1;whiteSpace=wrap;html=1;" vertex="1" parent="1">
          <mxGeometry x="170" y="130" width="90" height="40" as="geometry" />
        </mxCell>
        <mxCell id="bnJA9mEv1rsPoNUp5mqw-7" value="" style="endArrow=none;html=1;rounded=0;" edge="1" parent="1" source="bnJA9mEv1rsPoNUp5mqw-1" target="bnJA9mEv1rsPoNUp5mqw-8">
          <mxGeometry width="50" height="50" relative="1" as="geometry">
            <mxPoint x="600" y="30" as="sourcePoint" />
            <mxPoint x="650" y="-20" as="targetPoint" />
          </mxGeometry>
        </mxCell>
        <mxCell id="bnJA9mEv1rsPoNUp5mqw-8" value="AppStateProvider&lt;br&gt;(Context)" style="rounded=0;whiteSpace=wrap;html=1;" vertex="1" parent="1">
          <mxGeometry x="700" y="20" width="170" height="30" as="geometry" />
        </mxCell>
        <mxCell id="bnJA9mEv1rsPoNUp5mqw-13" value="" style="edgeStyle=orthogonalEdgeStyle;rounded=0;orthogonalLoop=1;jettySize=auto;html=1;entryX=0.5;entryY=0;entryDx=0;entryDy=0;" edge="1" parent="1" source="bnJA9mEv1rsPoNUp5mqw-9" target="bnJA9mEv1rsPoNUp5mqw-18">
          <mxGeometry relative="1" as="geometry">
            <mxPoint x="335" y="190" as="targetPoint" />
          </mxGeometry>
        </mxCell>
        <mxCell id="bnJA9mEv1rsPoNUp5mqw-9" value="Slide 2" style="rounded=1;whiteSpace=wrap;html=1;" vertex="1" parent="1">
          <mxGeometry x="290" y="130" width="90" height="40" as="geometry" />
        </mxCell>
        <mxCell id="bnJA9mEv1rsPoNUp5mqw-10" value="" style="endArrow=none;html=1;rounded=0;exitX=0.5;exitY=0;exitDx=0;exitDy=0;" edge="1" parent="1" source="bnJA9mEv1rsPoNUp5mqw-6" target="bnJA9mEv1rsPoNUp5mqw-2">
          <mxGeometry width="50" height="50" relative="1" as="geometry">
            <mxPoint x="190" y="160" as="sourcePoint" />
            <mxPoint x="240" y="110" as="targetPoint" />
          </mxGeometry>
        </mxCell>
        <mxCell id="bnJA9mEv1rsPoNUp5mqw-11" value="" style="endArrow=none;html=1;rounded=0;entryX=0.5;entryY=0;entryDx=0;entryDy=0;exitX=0.68;exitY=1;exitDx=0;exitDy=0;exitPerimeter=0;" edge="1" parent="1" source="bnJA9mEv1rsPoNUp5mqw-2" target="bnJA9mEv1rsPoNUp5mqw-9">
          <mxGeometry width="50" height="50" relative="1" as="geometry">
            <mxPoint x="460" y="250" as="sourcePoint" />
            <mxPoint x="510" y="200" as="targetPoint" />
          </mxGeometry>
        </mxCell>
        <mxCell id="bnJA9mEv1rsPoNUp5mqw-14" value="Screen" style="rounded=0;whiteSpace=wrap;html=1;" vertex="1" parent="1">
          <mxGeometry x="10" y="10" width="100" height="30" as="geometry" />
        </mxCell>
        <mxCell id="bnJA9mEv1rsPoNUp5mqw-15" value="Component" style="rounded=1;whiteSpace=wrap;html=1;" vertex="1" parent="1">
          <mxGeometry x="10" y="50" width="100" height="30" as="geometry" />
        </mxCell>
        <mxCell id="bnJA9mEv1rsPoNUp5mqw-18" value="Authenticate" style="whiteSpace=wrap;html=1;rounded=1;" vertex="1" parent="1">
          <mxGeometry x="290" y="200" width="92.5" height="50" as="geometry" />
        </mxCell>
        <mxCell id="bnJA9mEv1rsPoNUp5mqw-20" value="Firebase&lt;br&gt;" style="shape=cylinder3;whiteSpace=wrap;html=1;boundedLbl=1;backgroundOutline=1;size=15;" vertex="1" parent="1">
          <mxGeometry x="230" y="340" width="70" height="90" as="geometry" />
        </mxCell>
        <mxCell id="bnJA9mEv1rsPoNUp5mqw-21" value="" style="endArrow=classic;startArrow=classic;html=1;rounded=0;entryX=0.5;entryY=1;entryDx=0;entryDy=0;exitX=0.5;exitY=0;exitDx=0;exitDy=0;exitPerimeter=0;" edge="1" parent="1" source="bnJA9mEv1rsPoNUp5mqw-20" target="bnJA9mEv1rsPoNUp5mqw-18">
          <mxGeometry width="50" height="50" relative="1" as="geometry">
            <mxPoint x="540" y="450" as="sourcePoint" />
            <mxPoint x="590" y="400" as="targetPoint" />
          </mxGeometry>
        </mxCell>
        <mxCell id="bnJA9mEv1rsPoNUp5mqw-26" value="HomeStack" style="shape=parallelogram;perimeter=parallelogramPerimeter;whiteSpace=wrap;html=1;fixedSize=1;" vertex="1" parent="1">
          <mxGeometry x="480" y="273.13" width="90" height="35" as="geometry" />
        </mxCell>
        <mxCell id="bnJA9mEv1rsPoNUp5mqw-43" value="" style="edgeStyle=orthogonalEdgeStyle;rounded=0;orthogonalLoop=1;jettySize=auto;html=1;" edge="1" parent="1" source="bnJA9mEv1rsPoNUp5mqw-28" target="bnJA9mEv1rsPoNUp5mqw-42">
          <mxGeometry relative="1" as="geometry" />
        </mxCell>
        <mxCell id="bnJA9mEv1rsPoNUp5mqw-28" value="ExploreStack" style="shape=parallelogram;perimeter=parallelogramPerimeter;whiteSpace=wrap;html=1;fixedSize=1;" vertex="1" parent="1">
          <mxGeometry x="700" y="285" width="90" height="35" as="geometry" />
        </mxCell>
        <mxCell id="bnJA9mEv1rsPoNUp5mqw-32" value="BlogStack" style="shape=parallelogram;perimeter=parallelogramPerimeter;whiteSpace=wrap;html=1;fixedSize=1;" vertex="1" parent="1">
          <mxGeometry x="960" y="250" width="90" height="35" as="geometry" />
        </mxCell>
        <mxCell id="bnJA9mEv1rsPoNUp5mqw-57" value="" style="edgeStyle=orthogonalEdgeStyle;rounded=0;orthogonalLoop=1;jettySize=auto;html=1;" edge="1" parent="1" source="bnJA9mEv1rsPoNUp5mqw-34" target="bnJA9mEv1rsPoNUp5mqw-56">
          <mxGeometry relative="1" as="geometry" />
        </mxCell>
        <mxCell id="bnJA9mEv1rsPoNUp5mqw-34" value="ProfileStack" style="shape=parallelogram;perimeter=parallelogramPerimeter;whiteSpace=wrap;html=1;fixedSize=1;" vertex="1" parent="1">
          <mxGeometry x="1187.5" y="221.25" width="90" height="35" as="geometry" />
        </mxCell>
        <mxCell id="bnJA9mEv1rsPoNUp5mqw-39" value="Stack Navigation&lt;br&gt;" style="shape=parallelogram;perimeter=parallelogramPerimeter;whiteSpace=wrap;html=1;fixedSize=1;" vertex="1" parent="1">
          <mxGeometry y="90" width="120" height="30" as="geometry" />
        </mxCell>
        <mxCell id="bnJA9mEv1rsPoNUp5mqw-48" value="" style="edgeStyle=orthogonalEdgeStyle;rounded=0;orthogonalLoop=1;jettySize=auto;html=1;entryX=0.5;entryY=0;entryDx=0;entryDy=0;" edge="1" parent="1" source="bnJA9mEv1rsPoNUp5mqw-40" target="bnJA9mEv1rsPoNUp5mqw-47">
          <mxGeometry relative="1" as="geometry">
            <mxPoint x="453.7142857142858" y="445.63" as="targetPoint" />
          </mxGeometry>
        </mxCell>
        <mxCell id="bnJA9mEv1rsPoNUp5mqw-40" value="HomeScreen" style="rounded=0;whiteSpace=wrap;html=1;" vertex="1" parent="1">
          <mxGeometry x="440" y="363.13" width="105" height="40" as="geometry" />
        </mxCell>
        <mxCell id="bnJA9mEv1rsPoNUp5mqw-41" value="" style="endArrow=none;html=1;rounded=0;entryX=0.411;entryY=1.157;entryDx=0;entryDy=0;entryPerimeter=0;" edge="1" parent="1" source="bnJA9mEv1rsPoNUp5mqw-40" target="bnJA9mEv1rsPoNUp5mqw-26">
          <mxGeometry width="50" height="50" relative="1" as="geometry">
            <mxPoint x="550" y="323.13" as="sourcePoint" />
            <mxPoint x="600" y="273.13" as="targetPoint" />
          </mxGeometry>
        </mxCell>
        <mxCell id="bnJA9mEv1rsPoNUp5mqw-52" value="" style="edgeStyle=orthogonalEdgeStyle;rounded=0;orthogonalLoop=1;jettySize=auto;html=1;exitX=0.5;exitY=1;exitDx=0;exitDy=0;" edge="1" parent="1" source="bnJA9mEv1rsPoNUp5mqw-44" target="bnJA9mEv1rsPoNUp5mqw-51">
          <mxGeometry relative="1" as="geometry" />
        </mxCell>
        <mxCell id="bnJA9mEv1rsPoNUp5mqw-65" style="edgeStyle=orthogonalEdgeStyle;rounded=0;orthogonalLoop=1;jettySize=auto;html=1;exitX=0.5;exitY=1;exitDx=0;exitDy=0;entryX=0.5;entryY=0;entryDx=0;entryDy=0;" edge="1" parent="1" source="bnJA9mEv1rsPoNUp5mqw-42" target="bnJA9mEv1rsPoNUp5mqw-44">
          <mxGeometry relative="1" as="geometry" />
        </mxCell>
        <mxCell id="bnJA9mEv1rsPoNUp5mqw-42" value="ExploreScreen" style="whiteSpace=wrap;html=1;" vertex="1" parent="1">
          <mxGeometry x="705" y="363.13" width="80" height="30" as="geometry" />
        </mxCell>
        <mxCell id="bnJA9mEv1rsPoNUp5mqw-44" value="Characters" style="whiteSpace=wrap;html=1;" vertex="1" parent="1">
          <mxGeometry x="650" y="444.38" width="80" height="25" as="geometry" />
        </mxCell>
        <mxCell id="bnJA9mEv1rsPoNUp5mqw-45" value="SpecificCharacter" style="whiteSpace=wrap;html=1;" vertex="1" parent="1">
          <mxGeometry x="630" y="560" width="120" height="30" as="geometry" />
        </mxCell>
        <mxCell id="bnJA9mEv1rsPoNUp5mqw-47" value="Quote of the day" style="whiteSpace=wrap;html=1;rounded=1;" vertex="1" parent="1">
          <mxGeometry x="430" y="449.38" width="97.5" height="47.5" as="geometry" />
        </mxCell>
        <mxCell id="bnJA9mEv1rsPoNUp5mqw-63" style="edgeStyle=orthogonalEdgeStyle;rounded=0;orthogonalLoop=1;jettySize=auto;html=1;exitX=0.5;exitY=1;exitDx=0;exitDy=0;" edge="1" parent="1" source="bnJA9mEv1rsPoNUp5mqw-51" target="bnJA9mEv1rsPoNUp5mqw-45">
          <mxGeometry relative="1" as="geometry">
            <Array as="points">
              <mxPoint x="690" y="540" />
              <mxPoint x="690" y="540" />
            </Array>
          </mxGeometry>
        </mxCell>
        <mxCell id="bnJA9mEv1rsPoNUp5mqw-51" value="Character Card" style="rounded=1;whiteSpace=wrap;html=1;" vertex="1" parent="1">
          <mxGeometry x="645" y="500" width="90" height="30" as="geometry" />
        </mxCell>
        <mxCell id="bnJA9mEv1rsPoNUp5mqw-59" value="" style="edgeStyle=orthogonalEdgeStyle;rounded=0;orthogonalLoop=1;jettySize=auto;html=1;" edge="1" parent="1" source="bnJA9mEv1rsPoNUp5mqw-56" target="bnJA9mEv1rsPoNUp5mqw-58">
          <mxGeometry relative="1" as="geometry" />
        </mxCell>
        <mxCell id="bnJA9mEv1rsPoNUp5mqw-56" value="ProfileScreen" style="whiteSpace=wrap;html=1;" vertex="1" parent="1">
          <mxGeometry x="1180" y="290" width="105" height="27.5" as="geometry" />
        </mxCell>
        <mxCell id="bnJA9mEv1rsPoNUp5mqw-62" style="edgeStyle=orthogonalEdgeStyle;rounded=0;orthogonalLoop=1;jettySize=auto;html=1;exitX=0.5;exitY=1;exitDx=0;exitDy=0;" edge="1" parent="1" source="bnJA9mEv1rsPoNUp5mqw-58" target="bnJA9mEv1rsPoNUp5mqw-60">
          <mxGeometry relative="1" as="geometry" />
        </mxCell>
        <mxCell id="bnJA9mEv1rsPoNUp5mqw-58" value="Authenticate" style="rounded=1;whiteSpace=wrap;html=1;" vertex="1" parent="1">
          <mxGeometry x="1185" y="358.75" width="95" height="25" as="geometry" />
        </mxCell>
        <mxCell id="bnJA9mEv1rsPoNUp5mqw-61" style="edgeStyle=orthogonalEdgeStyle;rounded=0;orthogonalLoop=1;jettySize=auto;html=1;exitX=0.5;exitY=0;exitDx=0;exitDy=0;exitPerimeter=0;entryX=0.5;entryY=1;entryDx=0;entryDy=0;" edge="1" parent="1" source="bnJA9mEv1rsPoNUp5mqw-60" target="bnJA9mEv1rsPoNUp5mqw-58">
          <mxGeometry relative="1" as="geometry" />
        </mxCell>
        <mxCell id="bnJA9mEv1rsPoNUp5mqw-60" value="Firebase" style="shape=cylinder3;whiteSpace=wrap;html=1;boundedLbl=1;backgroundOutline=1;size=15;" vertex="1" parent="1">
          <mxGeometry x="1240" y="475" width="60" height="80" as="geometry" />
        </mxCell>
      </root>
    </mxGraphModel>
  </diagram>
</mxfile>
